<svg width="378" height="411" viewBox="0 0 378 411" fill="none" xmlns="http://www.w3.org/2000/svg">
<path d="M94.7838 353.4C96.6718 353.4 97.7278 354.456 97.7278 356.344V378.008C97.7278 389.88 92.7358 395.576 79.1038 395.576C65.4718 395.576 60.4798 389.88 60.4798 378.008V356.344C60.4798 354.456 61.5358 353.4 63.4238 353.4H66.5598C68.4478 353.4 69.5038 354.456 69.5038 356.344V378.488C69.5038 384.664 72.3518 387.448 79.1038 387.448C85.9198 387.448 88.7038 384.664 88.7038 378.488V356.344C88.7038 354.456 89.7598 353.4 91.6478 353.4H94.7838ZM121.675 363.256C123.723 363.224 124.811 364.248 124.811 366.168V368.024C124.811 369.912 123.691 370.968 121.579 371C114.859 371.096 114.571 371.672 114.571 374.072V392.056C114.571 393.944 113.515 395 111.627 395H108.459C106.571 395 105.515 393.944 105.515 392.056V372.792C105.515 365.464 108.139 363.48 121.675 363.256ZM129.031 374.2C129.031 357.688 140.167 349.656 157.415 353.976C159.143 354.392 159.943 355.544 159.943 357.272V359.416C159.943 361.496 158.695 362.392 156.551 361.944C143.207 359.224 138.567 363.448 138.567 374.2C138.567 384.952 143.207 389.176 156.551 386.456C158.695 386.008 159.943 386.904 159.943 388.984V391.128C159.943 392.856 159.047 394.04 157.095 394.52C140.039 398.648 129.031 390.616 129.031 374.2ZM178.984 362.968C190.216 362.968 196.872 367.064 196.872 379.256V392.056C196.872 393.944 195.816 395 193.928 395H190.92C189.032 395 187.976 393.944 187.976 392.056V379.256C187.976 372.472 185.48 370.424 179.272 370.424C177.896 370.424 176.328 370.52 174.536 370.648V392.056C174.536 393.944 173.48 395 171.592 395H168.584C166.696 395 165.64 393.944 165.64 392.056V353.144C165.64 351.256 166.696 350.2 168.584 350.2H171.592C173.48 350.2 174.536 351.256 174.536 353.144V363.16C176.072 363.032 177.576 362.968 178.984 362.968ZM219.035 395.576C208.571 395.576 202.843 389.656 202.843 379.288C202.843 368.888 208.571 362.968 219.035 362.968C229.499 362.968 235.227 368.888 235.227 379.288C235.227 389.656 229.499 395.576 219.035 395.576ZM219.035 388.088C223.835 388.088 226.203 385.432 226.203 379.288C226.203 373.08 223.835 370.456 219.035 370.456C214.235 370.456 211.867 373.08 211.867 379.288C211.867 385.432 214.235 388.088 219.035 388.088ZM246.515 359.448C243.219 359.448 241.555 357.624 241.555 354.552C241.555 351.48 243.219 349.592 246.515 349.592C249.843 349.592 251.475 351.48 251.475 354.552C251.475 357.624 249.843 359.448 246.515 359.448ZM244.915 395C243.027 395 241.971 393.944 241.971 392.056V366.488C241.971 364.6 243.027 363.544 244.915 363.544H248.083C249.971 363.544 251.027 364.6 251.027 366.488V392.056C251.027 393.944 249.971 395 248.083 395H244.915ZM275.253 370.328C269.269 370.328 266.805 372.984 266.805 379.288C266.805 385.592 269.269 388.184 275.253 388.184C276.757 388.184 278.613 388.024 280.565 387.672C282.613 387.352 283.797 388.248 283.797 390.296V391.384C283.797 393.112 282.997 394.264 281.301 394.648C278.677 395.288 276.117 395.576 273.813 395.576C264.373 395.576 257.781 390.264 257.781 379.288C257.781 368.312 264.373 362.968 273.813 362.968C276.117 362.968 278.677 363.256 281.301 363.896C282.997 364.28 283.797 365.432 283.797 367.16V368.248C283.797 370.296 282.389 371.128 279.989 370.744C278.261 370.488 276.629 370.328 275.253 370.328ZM319.217 375.192C319.217 379.672 317.329 381.56 311.569 382.168L298.033 383.576C299.185 387.16 302.097 388.44 306.353 388.44C308.433 388.44 310.929 388.088 313.681 387.416C315.761 386.936 317.009 387.832 317.009 389.912V390.872C317.009 392.6 316.209 393.72 314.513 394.168C311.057 395.096 307.793 395.576 304.785 395.576C295.089 395.576 288.593 390.296 288.593 379.288C288.593 368.888 294.097 362.968 304.849 362.968C313.873 362.968 319.217 367.192 319.217 375.192ZM308.593 375.992C310.449 375.8 310.801 375.448 310.801 374.36C310.801 371.32 308.945 369.688 304.849 369.688C300.401 369.688 298.033 371.704 297.553 377.112L308.593 375.992Z" fill="url(#paint0_linear_32_44)" style="mix-blend-mode:plus-darker"/>
<rect width="189" height="263" rx="30" transform="matrix(-0.920505 0.390731 0.390731 0.920505 173.975 0)" fill="#38E1FC"/>
<path d="M128.967 81.6264L146.078 88.54L153.287 105.523L145.141 108.981L116.484 97.5173L112.674 88.5424L128.967 81.6264ZM124.923 117.4L133.208 113.884L161.727 125.406L182.065 173.318L124.211 197.876L87.0375 182.857L57.0294 112.162L73.3223 105.246L90.434 112.16L112.316 163.327L119.594 166.267L141.686 156.89L124.923 117.4Z" fill="#ED3B3B"/>
<rect x="196.894" y="28" width="189" height="263" rx="30" transform="rotate(17 196.894 28)" fill="#ED3B3B"/>
<path d="M297.333 141.131L304.902 155.366L296.613 182.477L287.003 179.538L260.611 129.904L297.333 141.131ZM267.191 201.244L277.949 204.534L285.474 218.912L277.536 244.876L202.944 222.071L194.28 205.775L221.164 117.843L248.418 126.176L260.767 149.401L258.268 157.578L239.189 151.745L225.989 194.922L229.674 201.852L263.814 212.29L267.191 201.244Z" fill="#38E1FC"/>
<defs>
<linearGradient id="paint0_linear_32_44" x1="179.5" y1="346.5" x2="204.5" y2="354.5" gradientUnits="userSpaceOnUse">
<stop stop-color="#ED3B3B"/>
<stop offset="0.9999" stop-color="#38E1FC"/>
<stop offset="1" stop-color="#38E1FC"/>
</linearGradient>
</defs>
</svg>
